{
  "accessors": [
    {
      "bufferView": 2,
      "componentType": 5126,
      "count": 65532,
      "max": [
        80.8135986328125,
        53.96379852294922,
        84.18260192871094
      ],
      "min": [
        13.971899032592773,
        0.0,
        0.0
      ],
      "type": "VEC3"
    },
    {
      "bufferView": 2,
      "byteOffset": 786384,
      "componentType": 5126,
      "count": 65532,
      "max": [
        0.9999922513961792,
        0.9999930262565613,
        0.9999921321868896
      ],
      "min": [
        -0.999971866607666,
        -0.9999883770942688,
        -0.9999933838844299
      ],
      "type": "VEC3"
    },
    {
      "bufferView": 1,
      "componentType": 5126,
      "count": 65532,
      "max": [
        0.9990329742431641,
        0.9990289807319641
      ],
      "min": [
        0.0009641579817980528,
        0.000967905973084271
      ],
      "type": "VEC2"
    },
    {
      "bufferView": 0,
      "componentType": 5125,
      "count": 360900,
      "type": "SCALAR"
    },
    {
      "bufferView": 2,
      "byteOffset": 1572768,
      "componentType": 5126,
      "count": 65532,
      "max": [
        66.8416976928711,
        53.963199615478516,
        83.99029541015625
      ],
      "min": [
        0.05699920654296875,
        0.0,
        0.0
      ],
      "type": "VEC3"
    },
    {
      "bufferView": 2,
      "byteOffset": 2359152,
      "componentType": 5126,
      "count": 65532,
      "max": [
        0.9999717473983765,
        0.9999930262565613,
        0.9999921321868896
      ],
      "min": [
        -0.9999922513961792,
        -0.9999883770942688,
        -0.9999933838844299
      ],
      "type": "VEC3"
    },
    {
      "bufferView": 1,
      "byteOffset": 524256,
      "componentType": 5126,
      "count": 65532,
      "max": [
        0.9990320205688477,
        0.9953669905662537
      ],
      "min": [
        0.0009642780059948564,
        0.000967905973084271
      ],
      "type": "VEC2"
    },
    {
      "bufferView": 0,
      "byteOffset": 1443600,
      "componentType": 5125,
      "count": 360114,
      "type": "SCALAR"
    },
    {
      "bufferView": 2,
      "byteOffset": 3145536,
      "componentType": 5126,
      "count": 11948,
      "max": [
        40.40679931640625,
        53.96379852294922,
        84.18260192871094
      ],
      "min": [
        0.0,
        31.218929290771484,
        14.800808906555176
      ],
      "type": "VEC3"
    },
    {
      "bufferView": 2,
      "byteOffset": 3288912,
      "componentType": 5126,
      "count": 11948,
      "max": [
        0.9986532330513,
        0.9998078942298889,
        0.9998711347579956
      ],
      "min": [
        -0.9998809099197388,
        -0.9997380971908569,
        -0.9999825358390808
      ],
      "type": "VEC3"
    },
    {
      "bufferView": 1,
      "byteOffset": 1048512,
      "componentType": 5126,
      "count": 11948,
      "max": [
        0.9451680183410645,
        0.9990310072898865
      ],
      "min": [
        0.16213800013065338,
        0.000967905973084271
      ],
      "type": "VEC2"
    },
    {
      "bufferView": 0,
      "byteOffset": 2884056,
      "componentType": 5125,
      "count": 66162,
      "type": "SCALAR"
    }
  ],
  "asset": {
    "extras": {
      "author": "RI6P (https://sketchfab.com/RI6P)",
      "license": "CC-BY-4.0 (http://creativecommons.org/licenses/by/4.0/)",
      "source": "https://sketchfab.com/3d-models/abyssal-centipede-34d6fc91f08441c0a9a81f3f167220b9",
      "title": "Abyssal Centipede"
    },
    "generator": "Sketchfab-12.68.0",
    "version": "2.0"
  },
  "bufferViews": [
    {
      "buffer": 0,
      "byteLength": 3148704,
      "name": "floatBufferViews",
      "target": 34963
    },
    {
      "buffer": 0,
      "byteLength": 1144096,
      "byteOffset": 3148704,
      "byteStride": 8,
      "name": "floatBufferViews",
      "target": 34962
    },
    {
      "buffer": 0,
      "byteLength": 3432288,
      "byteOffset": 4292800,
      "byteStride": 12,
      "name": "floatBufferViews",
      "target": 34962
    }
  ],
  "buffers": [
    {
      "byteLength": 7725088,
      "uri": "scene.bin"
    }
  ],
  "images": [
    {
      "uri": "textures/SculptMaterial_baseColor.png"
    }
  ],
  "materials": [
    {
      "doubleSided": true,
      "name": "SculptMaterial",
      "pbrMetallicRoughness": {
        "baseColorFactor": [
          0.3004954268292683,
          0.3004954268292683,
          0.3004954268292683,
          1.0
        ],
        "baseColorTexture": {
          "index": 0
        },
        "metallicFactor": 0.0,
        "roughnessFactor": 0.6
      }
    }
  ],
  "meshes": [
    {
      "name": "Object_0",
      "primitives": [
        {
          "attributes": {
            "NORMAL": 1,
            "POSITION": 0,
            "TEXCOORD_0": 2
          },
          "indices": 3,
          "material": 0,
          "mode": 4
        }
      ]
    },
    {
      "name": "Object_1",
      "primitives": [
        {
          "attributes": {
            "NORMAL": 5,
            "POSITION": 4,
            "TEXCOORD_0": 6
          },
          "indices": 7,
          "material": 0,
          "mode": 4
        }
      ]
    },
    {
      "name": "Object_2",
      "primitives": [
        {
          "attributes": {
            "NORMAL": 9,
            "POSITION": 8,
            "TEXCOORD_0": 10
          },
          "indices": 11,
          "material": 0,
          "mode": 4
        }
      ]
    }
  ],
  "nodes": [
    {
      "children": [
        1
      ],
      "matrix": [
        1.0,
        0.0,
        0.0,
        0.0,
        0.0,
        -1.0,
        -4.440892098500626e-16,
        0.0,
        0.0,
        4.440892098500626e-16,
        -1.0,
        0.0,
        0.0,
        22.1661205291748,
        15.92490959167481,
        1.0
      ],
      "name": "Sketchfab_model"
    },
    {
      "children": [
        2
      ],
      "matrix": [
        1.0,
        0.0,
        0.0,
        0.0,
        0.0,
        1.0,
        0.0,
        0.0,
        0.0,
        0.0,
        1.0,
        0.0,
        -40.40679931640625,
        -23.8612003326416,
        -23.045799255371094,
        1.0
      ],
      "name": "Abyssal Centipede.obj.cleaner.materialmerger.gles"
    },
    {
      "children": [
        3,
        4,
        5
      ],
      "name": "Object_2"
    },
    {
      "mesh": 0,
      "name": "Object_3"
    },
    {
      "mesh": 1,
      "name": "Object_4"
    },
    {
      "mesh": 2,
      "name": "Object_5"
    }
  ],
  "samplers": [
    {
      "magFilter": 9729,
      "minFilter": 9987,
      "wrapS": 10497,
      "wrapT": 10497
    }
  ],
  "scene": 0,
  "scenes": [
    {
      "name": "Sketchfab_Scene",
      "nodes": [
        0
      ]
    }
  ],
  "textures": [
    {
      "sampler": 0,
      "source": 0
    }
  ]
}
